<mxfile host="app.diagrams.net" modified="2024-07-18T20:56:25.773Z" agent="Mozilla/5.0 (X11; Ubuntu; Linux x86_64; rv:127.0) Gecko/20100101 Firefox/127.0" etag="bLVhMrTl8oy7h1dSr2Gs" version="24.6.1" type="github">
  <diagram name="Page-1" id="42789a77-a242-8287-6e28-9cd8cfd52e62">
    <mxGraphModel dx="837" dy="836" grid="1" gridSize="10" guides="1" tooltips="1" connect="1" arrows="1" fold="1" page="1" pageScale="1" pageWidth="1100" pageHeight="850" background="none" math="0" shadow="0">
      <root>
        <mxCell id="0" />
        <mxCell id="1" parent="0" />
        <mxCell id="1ea317790d2ca983-12" style="edgeStyle=none;rounded=1;html=1;labelBackgroundColor=none;startArrow=none;startFill=0;startSize=5;endArrow=classicThin;endFill=1;endSize=5;jettySize=auto;orthogonalLoop=1;strokeColor=#B3B3B3;strokeWidth=1;fontFamily=Verdana;fontSize=12" parent="1" source="1ea317790d2ca983-1" target="1ea317790d2ca983-2" edge="1">
          <mxGeometry relative="1" as="geometry" />
        </mxCell>
        <mxCell id="JbZoCH-ZJ-E3tPsfmKly-1" value="broadcast" style="edgeLabel;html=1;align=center;verticalAlign=middle;resizable=0;points=[];" parent="1ea317790d2ca983-12" vertex="1" connectable="0">
          <mxGeometry x="0.0339" y="-2" relative="1" as="geometry">
            <mxPoint as="offset" />
          </mxGeometry>
        </mxCell>
        <mxCell id="1ea317790d2ca983-13" value="broadcast" style="edgeStyle=none;rounded=1;html=1;labelBackgroundColor=none;startArrow=none;startFill=0;startSize=5;endArrow=classicThin;endFill=1;endSize=5;jettySize=auto;orthogonalLoop=1;strokeColor=#B3B3B3;strokeWidth=1;fontFamily=Verdana;fontSize=12" parent="1" source="1ea317790d2ca983-1" target="1ea317790d2ca983-9" edge="1">
          <mxGeometry relative="1" as="geometry" />
        </mxCell>
        <mxCell id="1ea317790d2ca983-14" value="broadcast" style="edgeStyle=none;rounded=1;html=1;labelBackgroundColor=none;startArrow=none;startFill=0;startSize=5;endArrow=classicThin;endFill=1;endSize=5;jettySize=auto;orthogonalLoop=1;strokeColor=#B3B3B3;strokeWidth=1;fontFamily=Verdana;fontSize=12" parent="1" source="1ea317790d2ca983-1" target="1ea317790d2ca983-3" edge="1">
          <mxGeometry relative="1" as="geometry" />
        </mxCell>
        <mxCell id="1ea317790d2ca983-1" value="KTL Service" style="ellipse;whiteSpace=wrap;html=1;rounded=0;shadow=1;comic=0;labelBackgroundColor=none;strokeWidth=1;fontFamily=Verdana;fontSize=12;align=center;" parent="1" vertex="1">
          <mxGeometry x="320" y="50" width="90" height="60" as="geometry" />
        </mxCell>
        <mxCell id="1ea317790d2ca983-2" value="Client 2, Host 1" style="ellipse;whiteSpace=wrap;html=1;rounded=0;shadow=1;comic=0;labelBackgroundColor=none;strokeWidth=1;fontFamily=Verdana;fontSize=12;align=center;" parent="1" vertex="1">
          <mxGeometry x="360" y="200" width="75" height="50" as="geometry" />
        </mxCell>
        <mxCell id="1ea317790d2ca983-3" value="Webktl" style="ellipse;whiteSpace=wrap;html=1;rounded=0;shadow=1;comic=0;labelBackgroundColor=none;strokeWidth=1;fontFamily=Verdana;fontSize=12;align=center;" parent="1" vertex="1">
          <mxGeometry x="570" y="110" width="75" height="50" as="geometry" />
        </mxCell>
        <mxCell id="1ea317790d2ca983-9" value="Client 1, Host 1" style="ellipse;whiteSpace=wrap;html=1;rounded=0;shadow=1;comic=0;labelBackgroundColor=none;strokeWidth=1;fontFamily=Verdana;fontSize=12;align=center;" parent="1" vertex="1">
          <mxGeometry x="210" y="190" width="75" height="50" as="geometry" />
        </mxCell>
        <mxCell id="WFGlv_I8qlS-T0hy2xla-1" value="How it looks via the KTL API: clients subscribe to broadcasts from KTL service." style="text;html=1;align=center;verticalAlign=middle;whiteSpace=wrap;rounded=0;" parent="1" vertex="1">
          <mxGeometry x="80" y="65" width="180" height="30" as="geometry" />
        </mxCell>
        <mxCell id="WFGlv_I8qlS-T0hy2xla-2" value="&lt;div&gt;How Messages actually flow&lt;/div&gt;&lt;div&gt;&lt;br&gt;&lt;/div&gt;" style="text;html=1;align=center;verticalAlign=middle;whiteSpace=wrap;rounded=0;" parent="1" vertex="1">
          <mxGeometry x="70" y="310" width="110" height="30" as="geometry" />
        </mxCell>
        <mxCell id="WFGlv_I8qlS-T0hy2xla-11" value="" style="group" parent="1" vertex="1" connectable="0">
          <mxGeometry x="145" y="330" width="290" height="160" as="geometry" />
        </mxCell>
        <mxCell id="WFGlv_I8qlS-T0hy2xla-4" value="&lt;b&gt;KTL Service 1&amp;nbsp;&amp;nbsp;&amp;nbsp;&amp;nbsp;&amp;nbsp; &lt;/b&gt;" style="ellipse;shape=cloud;whiteSpace=wrap;html=1;" parent="WFGlv_I8qlS-T0hy2xla-11" vertex="1">
          <mxGeometry width="290" height="160" as="geometry" />
        </mxCell>
        <mxCell id="WFGlv_I8qlS-T0hy2xla-3" value="Dispatcher 1" style="ellipse;whiteSpace=wrap;html=1;" parent="WFGlv_I8qlS-T0hy2xla-11" vertex="1">
          <mxGeometry x="85" y="20" width="90" height="50" as="geometry" />
        </mxCell>
        <mxCell id="WFGlv_I8qlS-T0hy2xla-6" value="Dispatcher 2" style="ellipse;whiteSpace=wrap;html=1;" parent="WFGlv_I8qlS-T0hy2xla-11" vertex="1">
          <mxGeometry x="85" y="90" width="90" height="50" as="geometry" />
        </mxCell>
        <mxCell id="WFGlv_I8qlS-T0hy2xla-7" value="Dispatcher 3" style="ellipse;whiteSpace=wrap;html=1;" parent="WFGlv_I8qlS-T0hy2xla-11" vertex="1">
          <mxGeometry x="175" y="60" width="90" height="50" as="geometry" />
        </mxCell>
        <mxCell id="WFGlv_I8qlS-T0hy2xla-12" value="" style="group" parent="1" vertex="1" connectable="0">
          <mxGeometry x="440" y="310" width="290" height="160" as="geometry" />
        </mxCell>
        <mxCell id="WFGlv_I8qlS-T0hy2xla-8" value="&lt;b&gt;KTL Service 2 &amp;nbsp;&amp;nbsp;&amp;nbsp; &lt;/b&gt;" style="ellipse;shape=cloud;whiteSpace=wrap;html=1;" parent="WFGlv_I8qlS-T0hy2xla-12" vertex="1">
          <mxGeometry width="290" height="160" as="geometry" />
        </mxCell>
        <mxCell id="WFGlv_I8qlS-T0hy2xla-10" value="Dispatcher 1" style="ellipse;whiteSpace=wrap;html=1;container=1;" parent="WFGlv_I8qlS-T0hy2xla-12" vertex="1">
          <mxGeometry x="120" y="90" width="90" height="50" as="geometry" />
        </mxCell>
        <mxCell id="WFGlv_I8qlS-T0hy2xla-13" value="&lt;div&gt;Traffic -- Message Broker&lt;/div&gt;" style="ellipse;whiteSpace=wrap;html=1;" parent="1" vertex="1">
          <mxGeometry x="410" y="500" width="120" height="80" as="geometry" />
        </mxCell>
        <mxCell id="WFGlv_I8qlS-T0hy2xla-15" value="" style="endArrow=classic;html=1;rounded=0;exitX=0.622;exitY=1;exitDx=0;exitDy=0;exitPerimeter=0;" parent="1" source="WFGlv_I8qlS-T0hy2xla-7" target="WFGlv_I8qlS-T0hy2xla-13" edge="1">
          <mxGeometry width="50" height="50" relative="1" as="geometry">
            <mxPoint x="380" y="450" as="sourcePoint" />
            <mxPoint x="430" y="400" as="targetPoint" />
          </mxGeometry>
        </mxCell>
        <mxCell id="WFGlv_I8qlS-T0hy2xla-16" value="" style="endArrow=classic;html=1;rounded=0;exitX=0.667;exitY=1;exitDx=0;exitDy=0;exitPerimeter=0;" parent="1" source="WFGlv_I8qlS-T0hy2xla-3" target="WFGlv_I8qlS-T0hy2xla-13" edge="1">
          <mxGeometry width="50" height="50" relative="1" as="geometry">
            <mxPoint x="380" y="450" as="sourcePoint" />
            <mxPoint x="430" y="400" as="targetPoint" />
          </mxGeometry>
        </mxCell>
        <mxCell id="WFGlv_I8qlS-T0hy2xla-17" value="" style="endArrow=classic;html=1;rounded=0;entryX=0.017;entryY=0.375;entryDx=0;entryDy=0;entryPerimeter=0;" parent="1" source="WFGlv_I8qlS-T0hy2xla-6" target="WFGlv_I8qlS-T0hy2xla-13" edge="1">
          <mxGeometry width="50" height="50" relative="1" as="geometry">
            <mxPoint x="380" y="450" as="sourcePoint" />
            <mxPoint x="430" y="400" as="targetPoint" />
          </mxGeometry>
        </mxCell>
        <mxCell id="WFGlv_I8qlS-T0hy2xla-47" value="Text" style="edgeLabel;html=1;align=center;verticalAlign=middle;resizable=0;points=[];" parent="WFGlv_I8qlS-T0hy2xla-17" vertex="1" connectable="0">
          <mxGeometry x="0.1829" y="-2" relative="1" as="geometry">
            <mxPoint y="1" as="offset" />
          </mxGeometry>
        </mxCell>
        <mxCell id="WFGlv_I8qlS-T0hy2xla-18" value="" style="endArrow=classic;html=1;rounded=0;exitX=0.5;exitY=1;exitDx=0;exitDy=0;entryX=0.917;entryY=0.125;entryDx=0;entryDy=0;entryPerimeter=0;" parent="1" source="WFGlv_I8qlS-T0hy2xla-10" target="WFGlv_I8qlS-T0hy2xla-13" edge="1">
          <mxGeometry width="50" height="50" relative="1" as="geometry">
            <mxPoint x="380" y="450" as="sourcePoint" />
            <mxPoint x="620" y="510" as="targetPoint" />
          </mxGeometry>
        </mxCell>
        <mxCell id="WFGlv_I8qlS-T0hy2xla-19" value="broadcast" style="edgeLabel;html=1;align=center;verticalAlign=middle;resizable=0;points=[];" parent="1" vertex="1" connectable="0">
          <mxGeometry x="450.2515537536299" y="650" as="geometry" />
        </mxCell>
        <mxCell id="WFGlv_I8qlS-T0hy2xla-20" value="gshow -s ..." style="ellipse;whiteSpace=wrap;html=1;rounded=0;shadow=1;comic=0;labelBackgroundColor=none;strokeWidth=1;fontFamily=Verdana;fontSize=12;align=center;" parent="1" vertex="1">
          <mxGeometry x="370" y="693.0619589046379" width="75" height="50" as="geometry" />
        </mxCell>
        <mxCell id="WFGlv_I8qlS-T0hy2xla-22" value="Client 1, Host 1" style="ellipse;whiteSpace=wrap;html=1;rounded=0;shadow=1;comic=0;labelBackgroundColor=none;strokeWidth=1;fontFamily=Verdana;fontSize=12;align=center;" parent="1" vertex="1">
          <mxGeometry x="280" y="683.0619589046379" width="75" height="50" as="geometry" />
        </mxCell>
        <mxCell id="WFGlv_I8qlS-T0hy2xla-23" value="" style="endArrow=classic;html=1;rounded=0;exitX=0.233;exitY=1;exitDx=0;exitDy=0;exitPerimeter=0;entryX=1;entryY=0;entryDx=0;entryDy=0;" parent="1" source="WFGlv_I8qlS-T0hy2xla-13" target="WFGlv_I8qlS-T0hy2xla-22" edge="1">
          <mxGeometry width="50" height="50" relative="1" as="geometry">
            <mxPoint x="380" y="410" as="sourcePoint" />
            <mxPoint x="430" y="360" as="targetPoint" />
          </mxGeometry>
        </mxCell>
        <mxCell id="WFGlv_I8qlS-T0hy2xla-24" value="" style="endArrow=classic;html=1;rounded=0;exitX=0.5;exitY=1;exitDx=0;exitDy=0;entryX=0.5;entryY=0;entryDx=0;entryDy=0;" parent="1" source="WFGlv_I8qlS-T0hy2xla-13" target="WFGlv_I8qlS-T0hy2xla-20" edge="1">
          <mxGeometry width="50" height="50" relative="1" as="geometry">
            <mxPoint x="450" y="630" as="sourcePoint" />
            <mxPoint x="356" y="740" as="targetPoint" />
          </mxGeometry>
        </mxCell>
        <mxCell id="WFGlv_I8qlS-T0hy2xla-25" value="" style="endArrow=classic;html=1;rounded=0;exitX=1;exitY=1;exitDx=0;exitDy=0;" parent="1" source="WFGlv_I8qlS-T0hy2xla-13" edge="1">
          <mxGeometry width="50" height="50" relative="1" as="geometry">
            <mxPoint x="530" y="620" as="sourcePoint" />
            <mxPoint x="580" y="610" as="targetPoint" />
          </mxGeometry>
        </mxCell>
        <mxCell id="WFGlv_I8qlS-T0hy2xla-26" value="Browser" style="swimlane;whiteSpace=wrap;html=1;" parent="1" vertex="1">
          <mxGeometry x="620" y="210" width="80" height="60" as="geometry" />
        </mxCell>
        <mxCell id="WFGlv_I8qlS-T0hy2xla-27" value="" style="endArrow=classic;html=1;rounded=0;entryX=0.5;entryY=0;entryDx=0;entryDy=0;" parent="1" source="1ea317790d2ca983-3" target="WFGlv_I8qlS-T0hy2xla-26" edge="1">
          <mxGeometry width="50" height="50" relative="1" as="geometry">
            <mxPoint x="480" y="400" as="sourcePoint" />
            <mxPoint x="530" y="350" as="targetPoint" />
          </mxGeometry>
        </mxCell>
        <mxCell id="WFGlv_I8qlS-T0hy2xla-28" value="Client 3, Host 2" style="ellipse;whiteSpace=wrap;html=1;rounded=0;shadow=1;comic=0;labelBackgroundColor=none;strokeWidth=1;fontFamily=Verdana;fontSize=12;align=center;" parent="1" vertex="1">
          <mxGeometry x="490" y="210" width="75" height="50" as="geometry" />
        </mxCell>
        <mxCell id="WFGlv_I8qlS-T0hy2xla-32" style="edgeStyle=none;rounded=1;html=1;labelBackgroundColor=none;startArrow=none;startFill=0;startSize=5;endArrow=classicThin;endFill=1;endSize=5;jettySize=auto;orthogonalLoop=1;strokeColor=#B3B3B3;strokeWidth=1;fontFamily=Verdana;fontSize=12;exitX=0.956;exitY=0.85;exitDx=0;exitDy=0;exitPerimeter=0;entryX=0.267;entryY=0;entryDx=0;entryDy=0;entryPerimeter=0;" parent="1" source="1ea317790d2ca983-1" target="WFGlv_I8qlS-T0hy2xla-28" edge="1">
          <mxGeometry relative="1" as="geometry">
            <mxPoint x="415" y="120" as="sourcePoint" />
            <mxPoint x="435" y="210" as="targetPoint" />
          </mxGeometry>
        </mxCell>
        <mxCell id="WFGlv_I8qlS-T0hy2xla-33" value="broadcast" style="edgeLabel;html=1;align=center;verticalAlign=middle;resizable=0;points=[];" parent="WFGlv_I8qlS-T0hy2xla-32" vertex="1" connectable="0">
          <mxGeometry x="0.0339" y="-2" relative="1" as="geometry">
            <mxPoint as="offset" />
          </mxGeometry>
        </mxCell>
        <mxCell id="WFGlv_I8qlS-T0hy2xla-34" value="Webktl State Server subscribes to services" style="shape=process;whiteSpace=wrap;html=1;backgroundOutline=1;" parent="1" vertex="1">
          <mxGeometry x="700" y="520" width="120" height="60" as="geometry" />
        </mxCell>
        <mxCell id="WFGlv_I8qlS-T0hy2xla-38" value="Webktl cgi-bin connector" style="shape=parallelogram;perimeter=parallelogramPerimeter;whiteSpace=wrap;html=1;fixedSize=1;" parent="1" vertex="1">
          <mxGeometry x="740" y="630" width="120" height="30" as="geometry" />
        </mxCell>
        <mxCell id="WFGlv_I8qlS-T0hy2xla-39" value="Browser" style="swimlane;whiteSpace=wrap;html=1;" parent="1" vertex="1">
          <mxGeometry x="830" y="710" width="80" height="60" as="geometry" />
        </mxCell>
        <mxCell id="WFGlv_I8qlS-T0hy2xla-42" value="" style="endArrow=classic;startArrow=classic;html=1;rounded=0;entryX=0.75;entryY=1;entryDx=0;entryDy=0;exitX=0.625;exitY=0.1;exitDx=0;exitDy=0;exitPerimeter=0;" parent="1" source="WFGlv_I8qlS-T0hy2xla-38" target="WFGlv_I8qlS-T0hy2xla-34" edge="1">
          <mxGeometry width="50" height="50" relative="1" as="geometry">
            <mxPoint x="750" y="670" as="sourcePoint" />
            <mxPoint x="650" y="440" as="targetPoint" />
          </mxGeometry>
        </mxCell>
        <mxCell id="WFGlv_I8qlS-T0hy2xla-43" value="" style="endArrow=classic;startArrow=classic;html=1;rounded=0;exitX=1;exitY=0.75;exitDx=0;exitDy=0;entryX=0.375;entryY=0;entryDx=0;entryDy=0;entryPerimeter=0;" parent="1" source="WFGlv_I8qlS-T0hy2xla-38" target="WFGlv_I8qlS-T0hy2xla-39" edge="1">
          <mxGeometry width="50" height="50" relative="1" as="geometry">
            <mxPoint x="600" y="490" as="sourcePoint" />
            <mxPoint x="820" y="740" as="targetPoint" />
          </mxGeometry>
        </mxCell>
        <mxCell id="WFGlv_I8qlS-T0hy2xla-45" value="&lt;div&gt;Poll service updates&lt;/div&gt;&lt;div&gt;&lt;br&gt;&lt;/div&gt;" style="text;html=1;align=center;verticalAlign=middle;whiteSpace=wrap;rounded=0;" parent="1" vertex="1">
          <mxGeometry x="780" y="673.06" width="60" height="63.06" as="geometry" />
        </mxCell>
        <mxCell id="WFGlv_I8qlS-T0hy2xla-46" value="" style="endArrow=classic;html=1;rounded=0;exitX=0.958;exitY=0.725;exitDx=0;exitDy=0;exitPerimeter=0;entryX=0;entryY=0.5;entryDx=0;entryDy=0;" parent="1" source="WFGlv_I8qlS-T0hy2xla-13" target="WFGlv_I8qlS-T0hy2xla-34" edge="1">
          <mxGeometry width="50" height="50" relative="1" as="geometry">
            <mxPoint x="590" y="520" as="sourcePoint" />
            <mxPoint x="640" y="580" as="targetPoint" />
          </mxGeometry>
        </mxCell>
        <mxCell id="3SW8r7ItblxoidYSSjJf-2" value="Gshowd / Gaas" style="ellipse;whiteSpace=wrap;html=1;" parent="1" vertex="1">
          <mxGeometry x="565" y="603.06" width="80" height="46.94" as="geometry" />
        </mxCell>
        <mxCell id="3SW8r7ItblxoidYSSjJf-3" value="Browser" style="swimlane;whiteSpace=wrap;html=1;" parent="1" vertex="1">
          <mxGeometry x="650" y="720" width="80" height="60" as="geometry" />
        </mxCell>
        <mxCell id="3SW8r7ItblxoidYSSjJf-4" value="" style="endArrow=classic;html=1;rounded=0;entryX=0.5;entryY=0;entryDx=0;entryDy=0;exitX=0.588;exitY=0.979;exitDx=0;exitDy=0;exitPerimeter=0;" parent="1" source="3SW8r7ItblxoidYSSjJf-2" target="3SW8r7ItblxoidYSSjJf-3" edge="1">
          <mxGeometry width="50" height="50" relative="1" as="geometry">
            <mxPoint x="600" y="610" as="sourcePoint" />
            <mxPoint x="650" y="560" as="targetPoint" />
          </mxGeometry>
        </mxCell>
        <mxCell id="3SW8r7ItblxoidYSSjJf-5" value="websocket gshow" style="edgeLabel;html=1;align=center;verticalAlign=middle;resizable=0;points=[];" parent="3SW8r7ItblxoidYSSjJf-4" vertex="1" connectable="0">
          <mxGeometry x="0.1119" y="-2" relative="1" as="geometry">
            <mxPoint as="offset" />
          </mxGeometry>
        </mxCell>
      </root>
    </mxGraphModel>
  </diagram>
</mxfile>
